ffmpeg started on 2026-01-16 at 16:55:01
Report written to "D:\Convert\FFMetrics\reports\ssim_report-6.txt"
Log level: 32
Command line:
ffmpeg -hide_banner -nostdin -r 24000/1001 -i "F:\\Convert\\files\\[DC] Make Heroine ga Oosugiru - 07_Telegram_HEVC(HB-9).mkv" -r 24000/1001 -i "F:\\Convert\\files\\[DC] Make Heroine ga Oosugiru - 07_Telegram.mp4" -lavfi "[0:v]settb=AVTB,setpts=PTS-STARTPTS,format=pix_fmts=yuv420p10le,fps=24000/1001,scale=1920:1080:flags=lanczos:param0=3:out_range=limited:out_color_matrix=bt709:out_chroma_loc=left,setsar=1/1,setdar=(1920/1080)*(1/1),colorspace=format=yuv420p10:range=tv:primaries=bt709:trc=bt709:space=bt709:fast=0[main];[1:v]settb=AVTB,setpts=PTS-STARTPTS,format=pix_fmts=yuv420p,fps=24000/1001,scale=1920:1080:flags=lanczos:param0=3:out_range=limited:out_color_matrix=bt709:out_chroma_loc=left,setsar=1.000,setdar=1.778,colorspace=format=yuv420p:range=tv:primaries=bt709:trc=bt709:space=bt709:fast=0[ref];[main][ref]ssim=eof_action=endall:stats_file='D\\:/Convert/FFMetrics/logs/ssim_logfile-6.txt'" -f null -
Input #0, matroska,webm, from 'F:\Convert\files\[DC] Make Heroine ga Oosugiru - 07_Telegram_HEVC(HB-9).mkv':
  Metadata:
    creation_time   : 2026-01-16T09:00:53.000000Z
    ENCODER         : Lavf61.7.100
  Duration: 00:24:06.81, start: -0.021000, bitrate: 959 kb/s
  Stream #0:0: Video: hevc (Main 10), yuv420p10le(tv, bt709), 1920x1080 [SAR 1:1 DAR 16:9], 23.98 fps, 23.98 tbr, 1k tbn (default)
      Metadata:
        BPS             : 762715
        DURATION        : 00:24:06.569708333
        NUMBER_OF_FRAMES: 34683
        NUMBER_OF_BYTES : 137914992
        _STATISTICS_WRITING_APP: mkvpropedit v94.0 ('Initiate') 64-bit
        _STATISTICS_WRITING_DATE_UTC: 2026-01-16 13:53:27
        _STATISTICS_TAGS: BPS DURATION NUMBER_OF_FRAMES NUMBER_OF_BYTES
  Stream #0:1: Audio: aac (LC), 48000 Hz, stereo, fltp (default)
      Metadata:
        title           : Stereo
        BPS             : 193190
        DURATION        : 00:24:06.784000000
        NUMBER_OF_FRAMES: 67819
        NUMBER_OF_BYTES : 34938166
        _STATISTICS_WRITING_APP: mkvpropedit v94.0 ('Initiate') 64-bit
        _STATISTICS_WRITING_DATE_UTC: 2026-01-16 13:53:27
        _STATISTICS_TAGS: BPS DURATION NUMBER_OF_FRAMES NUMBER_OF_BYTES
Input #1, mov,mp4,m4a,3gp,3g2,mj2, from 'F:\Convert\files\[DC] Make Heroine ga Oosugiru - 07_Telegram.mp4':
  Metadata:
    major_brand     : isom
    minor_version   : 512
    compatible_brands: isomiso2avc1mp41
    encoder         : Lavf60.16.100
  Duration: 00:24:06.74, start: 0.000000, bitrate: 3764 kb/s
  Stream #1:0[0x1](und): Video: h264 (High) (avc1 / 0x31637661), yuv420p(tv, bt709, progressive), 1920x1080 [SAR 1:1 DAR 16:9], 3616 kb/s, 23.98 fps, 23.98 tbr, 24k tbn (default)
      Metadata:
        handler_name    : VideoHandler
        vendor_id       : [0][0][0][0]
        encoder         : Lavc60.31.102 h264_qsv
  Stream #1:1[0x2](und): Audio: aac (HE-AACv2) (mp4a / 0x6134706D), 48000 Hz, stereo, fltp, 144 kb/s (default)
      Metadata:
        handler_name    : SoundHandler
        vendor_id       : [0][0][0][0]
Stream mapping:
  Stream #0:0 (hevc) -> settb:default
  Stream #1:0 (h264) -> settb:default
  ssim:default -> Stream #0:0 (wrapped_avframe)
  Stream #0:1 -> #0:1 (aac (native) -> pcm_s16le (native))
Output #0, null, to 'pipe:':
  Metadata:
    encoder         : Lavf61.7.100
  Stream #0:0: Video: wrapped_avframe, yuv420p10le(tv, bt709, progressive), 1920x1080 [SAR 1:1 DAR 16:9], q=2-31, 200 kb/s, 23.98 fps, 23.98 tbn
      Metadata:
        encoder         : Lavc61.19.100 wrapped_avframe
  Stream #0:1: Audio: pcm_s16le, 48000 Hz, stereo, s16, 1536 kb/s (default)
      Metadata:
        title           : Stereo
        BPS             : 193190
        DURATION        : 00:24:06.784000000
        NUMBER_OF_FRAMES: 67819
        NUMBER_OF_BYTES : 34938166
        _STATISTICS_WRITING_APP: mkvpropedit v94.0 ('Initiate') 64-bit
        _STATISTICS_WRITING_DATE_UTC: 2026-01-16 13:53:27
        _STATISTICS_TAGS: BPS DURATION NUMBER_OF_FRAMES NUMBER_OF_BYTES
        encoder         : Lavc61.19.100 pcm_s16le
frame=  124 fps=0.0 q=-0.0 size=N/A time=00:00:05.17 bitrate=N/A speed=10.1x    frame=  317 fps=305 q=-0.0 size=N/A time=00:00:13.22 bitrate=N/A speed=12.7x    frame=  516 fps=333 q=-0.0 size=N/A time=00:00:21.52 bitrate=N/A speed=13.9x    frame=  714 fps=346 q=-0.0 size=N/A time=00:00:29.77 bitrate=N/A speed=14.4x    frame=  891 fps=346 q=-0.0 size=N/A time=00:00:37.16 bitrate=N/A speed=14.4x    frame= 1043 fps=336 q=-0.0 size=N/A time=00:00:43.50 bitrate=N/A speed=  14x    frame= 1207 fps=334 q=-0.0 size=N/A time=00:00:50.34 bitrate=N/A speed=13.9x    frame= 1368 fps=332 q=-0.0 size=N/A time=00:00:57.05 bitrate=N/A speed=13.8x    frame= 1534 fps=330 q=-0.0 size=N/A time=00:01:03.98 bitrate=N/A speed=13.8x    frame= 1675 fps=325 q=-0.0 size=N/A time=00:01:09.86 bitrate=N/A speed=13.5x    frame= 1846 fps=325 q=-0.0 size=N/A time=00:01:16.99 bitrate=N/A speed=13.6x    frame= 2010 fps=325 q=-0.0 size=N/A time=00:01:23.83 bitrate=N/A speed=13.6x    frame= 2121 fps=316 q=-0.0 size=N/A time=00:01:28.46 bitrate=N/A speed=13.2x    frame= 2276 fps=315 q=-0.0 size=N/A time=00:01:34.92 bitrate=N/A speed=13.1x    frame= 2418 fps=313 q=-0.0 size=N/A time=00:01:40.85 bitrate=N/A speed=  13x    frame= 2556 fps=310 q=-0.0 size=N/A time=00:01:46.60 bitrate=N/A speed=12.9x    frame= 2732 fps=311 q=-0.0 size=N/A time=00:01:53.94 bitrate=N/A speed=  13x    frame= 2908 fps=313 q=-0.0 size=N/A time=00:02:01.28 bitrate=N/A speed=13.1x    frame= 3090 fps=316 q=-0.0 size=N/A time=00:02:08.87 bitrate=N/A speed=13.2x    frame= 3295 fps=319 q=-0.0 size=N/A time=00:02:17.42 bitrate=N/A speed=13.3x    frame= 3500 fps=323 q=-0.0 size=N/A time=00:02:25.97 bitrate=N/A speed=13.5x    frame= 3696 fps=325 q=-0.0 size=N/A time=00:02:34.15 bitrate=N/A speed=13.6x    frame= 3894 fps=328 q=-0.0 size=N/A time=00:02:42.41 bitrate=N/A speed=13.7x    frame= 4099 fps=330 q=-0.0 size=N/A time=00:02:50.96 bitrate=N/A speed=13.8x    frame= 4295 fps=332 q=-0.0 size=N/A time=00:02:59.13 bitrate=N/A speed=13.9x    frame= 4488 fps=334 q=-0.0 size=N/A time=00:03:07.18 bitrate=N/A speed=13.9x    frame= 4691 fps=336 q=-0.0 size=N/A time=00:03:15.65 bitrate=N/A speed=  14x    frame= 4885 fps=338 q=-0.0 size=N/A time=00:03:23.74 bitrate=N/A speed=14.1x    frame= 5081 fps=339 q=-0.0 size=N/A time=00:03:31.92 bitrate=N/A speed=14.1x    frame= 5266 fps=340 q=-0.0 size=N/A time=00:03:39.63 bitrate=N/A speed=14.2x    frame= 5468 fps=341 q=-0.0 size=N/A time=00:03:48.06 bitrate=N/A speed=14.2x    frame= 5664 fps=343 q=-0.0 size=N/A time=00:03:56.23 bitrate=N/A speed=14.3x    frame= 5861 fps=344 q=-0.0 size=N/A time=00:04:04.45 bitrate=N/A speed=14.3x    frame= 6065 fps=345 q=-0.0 size=N/A time=00:04:12.96 bitrate=N/A speed=14.4x    frame= 6255 fps=346 q=-0.0 size=N/A time=00:04:20.88 bitrate=N/A speed=14.4x    frame= 6449 fps=347 q=-0.0 size=N/A time=00:04:28.97 bitrate=N/A speed=14.5x    frame= 6650 fps=348 q=-0.0 size=N/A time=00:04:37.36 bitrate=N/A speed=14.5x    frame= 6835 fps=348 q=-0.0 size=N/A time=00:04:45.07 bitrate=N/A speed=14.5x    frame= 7028 fps=349 q=-0.0 size=N/A time=00:04:53.12 bitrate=N/A speed=14.6x    frame= 7214 fps=349 q=-0.0 size=N/A time=00:05:00.88 bitrate=N/A speed=14.6x    frame= 7416 fps=350 q=-0.0 size=N/A time=00:05:09.30 bitrate=N/A speed=14.6x    frame= 7600 fps=350 q=-0.0 size=N/A time=00:05:16.98 bitrate=N/A speed=14.6x    frame= 7789 fps=351 q=-0.0 size=N/A time=00:05:24.86 bitrate=N/A speed=14.6x    frame= 7976 fps=351 q=-0.0 size=N/A time=00:05:32.66 bitrate=N/A speed=14.6x    frame= 8170 fps=352 q=-0.0 size=N/A time=00:05:40.75 bitrate=N/A speed=14.7x    frame= 8358 fps=352 q=-0.0 size=N/A time=00:05:48.59 bitrate=N/A speed=14.7x    frame= 8552 fps=352 q=-0.0 size=N/A time=00:05:56.68 bitrate=N/A speed=14.7x    frame= 8749 fps=353 q=-0.0 size=N/A time=00:06:04.90 bitrate=N/A speed=14.7x    frame= 8943 fps=353 q=-0.0 size=N/A time=00:06:12.99 bitrate=N/A speed=14.7x    frame= 9140 fps=354 q=-0.0 size=N/A time=00:06:21.21 bitrate=N/A speed=14.8x    frame= 9342 fps=355 q=-0.0 size=N/A time=00:06:29.63 bitrate=N/A speed=14.8x    frame= 9539 fps=355 q=-0.0 size=N/A time=00:06:37.85 bitrate=N/A speed=14.8x    frame= 9725 fps=355 q=-0.0 size=N/A time=00:06:45.61 bitrate=N/A speed=14.8x    frame= 9925 fps=356 q=-0.0 size=N/A time=00:06:53.95 bitrate=N/A speed=14.8x    frame=10118 fps=356 q=-0.0 size=N/A time=00:07:02.00 bitrate=N/A speed=14.9x    frame=10311 fps=357 q=-0.0 size=N/A time=00:07:10.05 bitrate=N/A speed=14.9x    frame=10494 fps=357 q=-0.0 size=N/A time=00:07:17.68 bitrate=N/A speed=14.9x    frame=10697 fps=357 q=-0.0 size=N/A time=00:07:26.15 bitrate=N/A speed=14.9x    frame=10886 fps=357 q=-0.0 size=N/A time=00:07:34.03 bitrate=N/A speed=14.9x    frame=11079 fps=358 q=-0.0 size=N/A time=00:07:42.08 bitrate=N/A speed=14.9x    frame=11256 fps=358 q=-0.0 size=N/A time=00:07:49.46 bitrate=N/A speed=14.9x    frame=11457 fps=358 q=-0.0 size=N/A time=00:07:57.85 bitrate=N/A speed=14.9x    frame=11650 fps=358 q=-0.0 size=N/A time=00:08:05.90 bitrate=N/A speed=14.9x    frame=11839 fps=358 q=-0.0 size=N/A time=00:08:13.78 bitrate=N/A speed=14.9x    frame=12038 fps=359 q=-0.0 size=N/A time=00:08:22.08 bitrate=N/A speed=  15x    frame=12233 fps=359 q=-0.0 size=N/A time=00:08:30.21 bitrate=N/A speed=  15x    frame=12431 fps=359 q=-0.0 size=N/A time=00:08:38.47 bitrate=N/A speed=  15x    frame=12625 fps=360 q=-0.0 size=N/A time=00:08:46.56 bitrate=N/A speed=  15x    frame=12816 fps=360 q=-0.0 size=N/A time=00:08:54.53 bitrate=N/A speed=  15x    frame=13009 fps=360 q=-0.0 size=N/A time=00:09:02.58 bitrate=N/A speed=  15x    frame=13189 fps=360 q=-0.0 size=N/A time=00:09:10.09 bitrate=N/A speed=  15x    frame=13383 fps=360 q=-0.0 size=N/A time=00:09:18.18 bitrate=N/A speed=  15x    frame=13576 fps=360 q=-0.0 size=N/A time=00:09:26.23 bitrate=N/A speed=  15x    frame=13766 fps=361 q=-0.0 size=N/A time=00:09:34.15 bitrate=N/A speed=  15x    frame=13958 fps=361 q=-0.0 size=N/A time=00:09:42.16 bitrate=N/A speed=  15x    frame=14139 fps=360 q=-0.0 size=N/A time=00:09:49.71 bitrate=N/A speed=  15x    frame=14323 fps=360 q=-0.0 size=N/A time=00:09:57.38 bitrate=N/A speed=  15x    frame=14516 fps=361 q=-0.0 size=N/A time=00:10:05.43 bitrate=N/A speed=  15x    frame=14711 fps=361 q=-0.0 size=N/A time=00:10:13.57 bitrate=N/A speed=  15x    frame=14900 fps=361 q=-0.0 size=N/A time=00:10:21.45 bitrate=N/A speed=15.1x    frame=15084 fps=361 q=-0.0 size=N/A time=00:10:29.12 bitrate=N/A speed=15.1x    frame=15253 fps=361 q=-0.0 size=N/A time=00:10:36.17 bitrate=N/A speed=  15x    frame=15451 fps=361 q=-0.0 size=N/A time=00:10:44.43 bitrate=N/A speed=  15x    frame=15631 fps=361 q=-0.0 size=N/A time=00:10:51.94 bitrate=N/A speed=  15x    frame=15825 fps=361 q=-0.0 size=N/A time=00:11:00.03 bitrate=N/A speed=15.1x    frame=16025 fps=361 q=-0.0 size=N/A time=00:11:08.37 bitrate=N/A speed=15.1x    frame=16212 fps=361 q=-0.0 size=N/A time=00:11:16.17 bitrate=N/A speed=15.1x    frame=16407 fps=361 q=-0.0 size=N/A time=00:11:24.30 bitrate=N/A speed=15.1x    frame=16600 fps=362 q=-0.0 size=N/A time=00:11:32.35 bitrate=N/A speed=15.1x    frame=16798 fps=362 q=-0.0 size=N/A time=00:11:40.61 bitrate=N/A speed=15.1x    frame=16995 fps=362 q=-0.0 size=N/A time=00:11:48.83 bitrate=N/A speed=15.1x    frame=17191 fps=362 q=-0.0 size=N/A time=00:11:57.00 bitrate=N/A speed=15.1x    frame=17381 fps=362 q=-0.0 size=N/A time=00:12:04.93 bitrate=N/A speed=15.1x    frame=17575 fps=362 q=-0.0 size=N/A time=00:12:13.02 bitrate=N/A speed=15.1x    frame=17765 fps=362 q=-0.0 size=N/A time=00:12:20.94 bitrate=N/A speed=15.1x    frame=17954 fps=363 q=-0.0 size=N/A time=00:12:28.83 bitrate=N/A speed=15.1x    frame=18162 fps=363 q=-0.0 size=N/A time=00:12:37.50 bitrate=N/A speed=15.1x    frame=18344 fps=363 q=-0.0 size=N/A time=00:12:45.09 bitrate=N/A speed=15.1x    frame=18532 fps=363 q=-0.0 size=N/A time=00:12:52.93 bitrate=N/A speed=15.1x    frame=18722 fps=363 q=-0.0 size=N/A time=00:13:00.86 bitrate=N/A speed=15.1x    frame=18924 fps=363 q=-0.0 size=N/A time=00:13:09.28 bitrate=N/A speed=15.1x    frame=19116 fps=363 q=-0.0 size=N/A time=00:13:17.29 bitrate=N/A speed=15.2x    frame=19322 fps=364 q=-0.0 size=N/A time=00:13:25.88 bitrate=N/A speed=15.2x    frame=19507 fps=364 q=-0.0 size=N/A time=00:13:33.60 bitrate=N/A speed=15.2x    frame=19711 fps=364 q=-0.0 size=N/A time=00:13:42.11 bitrate=N/A speed=15.2x    frame=19910 fps=364 q=-0.0 size=N/A time=00:13:50.41 bitrate=N/A speed=15.2x    frame=20112 fps=364 q=-0.0 size=N/A time=00:13:58.83 bitrate=N/A speed=15.2x    frame=20300 fps=364 q=-0.0 size=N/A time=00:14:06.67 bitrate=N/A speed=15.2x    frame=20490 fps=364 q=-0.0 size=N/A time=00:14:14.60 bitrate=N/A speed=15.2x    frame=20672 fps=364 q=-0.0 size=N/A time=00:14:22.19 bitrate=N/A speed=15.2x    frame=20868 fps=364 q=-0.0 size=N/A time=00:14:30.36 bitrate=N/A speed=15.2x    frame=21066 fps=365 q=-0.0 size=N/A time=00:14:38.62 bitrate=N/A speed=15.2x    frame=21266 fps=365 q=-0.0 size=N/A time=00:14:46.96 bitrate=N/A speed=15.2x    frame=21462 fps=365 q=-0.0 size=N/A time=00:14:55.14 bitrate=N/A speed=15.2x    frame=21661 fps=365 q=-0.0 size=N/A time=00:15:03.44 bitrate=N/A speed=15.2x    frame=21852 fps=365 q=-0.0 size=N/A time=00:15:11.41 bitrate=N/A speed=15.2x    frame=22045 fps=365 q=-0.0 size=N/A time=00:15:19.46 bitrate=N/A speed=15.2x    frame=22243 fps=365 q=-0.0 size=N/A time=00:15:27.71 bitrate=N/A speed=15.2x    frame=22443 fps=366 q=-0.0 size=N/A time=00:15:36.06 bitrate=N/A speed=15.2x    frame=22645 fps=366 q=-0.0 size=N/A time=00:15:44.48 bitrate=N/A speed=15.3x    frame=22831 fps=366 q=-0.0 size=N/A time=00:15:52.24 bitrate=N/A speed=15.3x    frame=23025 fps=366 q=-0.0 size=N/A time=00:16:00.33 bitrate=N/A speed=15.3x    frame=23218 fps=366 q=-0.0 size=N/A time=00:16:08.38 bitrate=N/A speed=15.3x    frame=23416 fps=366 q=-0.0 size=N/A time=00:16:16.64 bitrate=N/A speed=15.3x    frame=23614 fps=366 q=-0.0 size=N/A time=00:16:24.90 bitrate=N/A speed=15.3x    frame=23814 fps=366 q=-0.0 size=N/A time=00:16:33.24 bitrate=N/A speed=15.3x    frame=24012 fps=366 q=-0.0 size=N/A time=00:16:41.50 bitrate=N/A speed=15.3x    frame=24199 fps=366 q=-0.0 size=N/A time=00:16:49.29 bitrate=N/A speed=15.3x    frame=24395 fps=367 q=-0.0 size=N/A time=00:16:57.47 bitrate=N/A speed=15.3x    frame=24595 fps=367 q=-0.0 size=N/A time=00:17:05.81 bitrate=N/A speed=15.3x    frame=24789 fps=367 q=-0.0 size=N/A time=00:17:13.90 bitrate=N/A speed=15.3x    frame=24986 fps=367 q=-0.0 size=N/A time=00:17:22.12 bitrate=N/A speed=15.3x    frame=25188 fps=367 q=-0.0 size=N/A time=00:17:30.54 bitrate=N/A speed=15.3x    frame=25384 fps=367 q=-0.0 size=N/A time=00:17:38.72 bitrate=N/A speed=15.3x    frame=25576 fps=367 q=-0.0 size=N/A time=00:17:46.73 bitrate=N/A speed=15.3x    frame=25773 fps=367 q=-0.0 size=N/A time=00:17:54.94 bitrate=N/A speed=15.3x    frame=25975 fps=368 q=-0.0 size=N/A time=00:18:03.37 bitrate=N/A speed=15.3x    frame=26159 fps=367 q=-0.0 size=N/A time=00:18:11.04 bitrate=N/A speed=15.3x    frame=26358 fps=368 q=-0.0 size=N/A time=00:18:19.34 bitrate=N/A speed=15.3x    frame=26560 fps=368 q=-0.0 size=N/A time=00:18:27.77 bitrate=N/A speed=15.3x    frame=26747 fps=368 q=-0.0 size=N/A time=00:18:35.57 bitrate=N/A speed=15.3x    frame=26946 fps=368 q=-0.0 size=N/A time=00:18:43.87 bitrate=N/A speed=15.3x    frame=27122 fps=368 q=-0.0 size=N/A time=00:18:51.21 bitrate=N/A speed=15.3x    frame=27307 fps=368 q=-0.0 size=N/A time=00:18:58.92 bitrate=N/A speed=15.3x    frame=27500 fps=368 q=-0.0 size=N/A time=00:19:06.97 bitrate=N/A speed=15.3x    frame=27690 fps=368 q=-0.0 size=N/A time=00:19:14.90 bitrate=N/A speed=15.3x    frame=27879 fps=368 q=-0.0 size=N/A time=00:19:22.78 bitrate=N/A speed=15.3x    frame=28070 fps=368 q=-0.0 size=N/A time=00:19:30.75 bitrate=N/A speed=15.3x    frame=28260 fps=368 q=-0.0 size=N/A time=00:19:38.67 bitrate=N/A speed=15.3x    frame=28454 fps=368 q=-0.0 size=N/A time=00:19:46.76 bitrate=N/A speed=15.3x    frame=28649 fps=368 q=-0.0 size=N/A time=00:19:54.90 bitrate=N/A speed=15.3x    frame=28826 fps=368 q=-0.0 size=N/A time=00:20:02.28 bitrate=N/A speed=15.3x    frame=28996 fps=367 q=-0.0 size=N/A time=00:20:09.37 bitrate=N/A speed=15.3x    frame=29174 fps=367 q=-0.0 size=N/A time=00:20:16.79 bitrate=N/A speed=15.3x    frame=29343 fps=367 q=-0.0 size=N/A time=00:20:23.84 bitrate=N/A speed=15.3x    frame=29517 fps=367 q=-0.0 size=N/A time=00:20:31.10 bitrate=N/A speed=15.3x    frame=29690 fps=367 q=-0.0 size=N/A time=00:20:38.32 bitrate=N/A speed=15.3x    frame=29870 fps=366 q=-0.0 size=N/A time=00:20:45.82 bitrate=N/A speed=15.3x    frame=30038 fps=366 q=-0.0 size=N/A time=00:20:52.83 bitrate=N/A speed=15.3x    frame=30216 fps=366 q=-0.0 size=N/A time=00:21:00.25 bitrate=N/A speed=15.3x    frame=30410 fps=366 q=-0.0 size=N/A time=00:21:08.35 bitrate=N/A speed=15.3x    frame=30602 fps=366 q=-0.0 size=N/A time=00:21:16.35 bitrate=N/A speed=15.3x    frame=30795 fps=366 q=-0.0 size=N/A time=00:21:24.40 bitrate=N/A speed=15.3x    frame=30996 fps=366 q=-0.0 size=N/A time=00:21:32.79 bitrate=N/A speed=15.3x    frame=31191 fps=366 q=-0.0 size=N/A time=00:21:40.92 bitrate=N/A speed=15.3x    frame=31378 fps=366 q=-0.0 size=N/A time=00:21:48.72 bitrate=N/A speed=15.3x    frame=31569 fps=366 q=-0.0 size=N/A time=00:21:56.69 bitrate=N/A speed=15.3x    frame=31760 fps=366 q=-0.0 size=N/A time=00:22:04.65 bitrate=N/A speed=15.3x    frame=31942 fps=366 q=-0.0 size=N/A time=00:22:12.24 bitrate=N/A speed=15.3x    frame=32124 fps=366 q=-0.0 size=N/A time=00:22:19.83 bitrate=N/A speed=15.3x    frame=32323 fps=366 q=-0.0 size=N/A time=00:22:28.13 bitrate=N/A speed=15.3x    frame=32524 fps=367 q=-0.0 size=N/A time=00:22:36.52 bitrate=N/A speed=15.3x    frame=32688 fps=366 q=-0.0 size=N/A time=00:22:43.36 bitrate=N/A speed=15.3x    frame=32846 fps=366 q=-0.0 size=N/A time=00:22:49.95 bitrate=N/A speed=15.3x    frame=33032 fps=366 q=-0.0 size=N/A time=00:22:57.70 bitrate=N/A speed=15.3x    frame=33215 fps=366 q=-0.0 size=N/A time=00:23:05.34 bitrate=N/A speed=15.3x    frame=33394 fps=366 q=-0.0 size=N/A time=00:23:12.80 bitrate=N/A speed=15.3x    frame=33554 fps=365 q=-0.0 size=N/A time=00:23:19.48 bitrate=N/A speed=15.2x    frame=33716 fps=365 q=-0.0 size=N/A time=00:23:26.23 bitrate=N/A speed=15.2x    frame=33839 fps=364 q=-0.0 size=N/A time=00:23:31.36 bitrate=N/A speed=15.2x    frame=34002 fps=364 q=-0.0 size=N/A time=00:23:38.16 bitrate=N/A speed=15.2x    frame=34172 fps=364 q=-0.0 size=N/A time=00:23:45.25 bitrate=N/A speed=15.2x    frame=34324 fps=363 q=-0.0 size=N/A time=00:23:51.59 bitrate=N/A speed=15.2x    frame=34458 fps=363 q=-0.0 size=N/A time=00:23:57.18 bitrate=N/A speed=15.1x    frame=34644 fps=363 q=-0.0 size=N/A time=00:24:04.94 bitrate=N/A speed=15.1x    [Parsed_ssim_16 @ 000002ac9dec9700] SSIM Y:0.994108 (22.297342) U:0.993900 (22.146712) V:0.993486 (21.861633) All:0.993970 (22.196588)
[out#0/null @ 000002ac8f201d00] video:14903KiB audio:271276KiB subtitle:0KiB other streams:0KiB global headers:0KiB muxing overhead: unknown
frame=34683 fps=363 q=-0.0 Lsize=N/A time=00:24:06.57 bitrate=N/A speed=15.1x    
